  0
SECTION
  2
HEADER
  9
$ACADVER
  1
AC1024
  9
$ACADMAINTVER
 70
6
  9
$DWGCODEPAGE
  3
ANSI_1252
  9
$LASTSAVEDBY
  1
ezdxf
  9
$INSBASE
 10
0.0
 20
0.0
 30
0.0
  9
$EXTMIN
 10
1e+20
 20
1e+20
 30
1e+20
  9
$EXTMAX
 10
-1e+20
 20
-1e+20
 30
-1e+20
  9
$LIMMIN
 10
0.0
 20
0.0
  9
$LIMMAX
 10
420.0
 20
297.0
  9
$ORTHOMODE
 70
0
  9
$REGENMODE
 70
1
  9
$FILLMODE
 70
1
  9
$QTEXTMODE
 70
0
  9
$MIRRTEXT
 70
1
  9
$LTSCALE
 40
1.0
  9
$ATTMODE
 70
1
  9
$TEXTSIZE
 40
2.5
  9
$TRACEWID
 40
1.0
  9
$TEXTSTYLE
  7
Standard
  9
$CLAYER
  8
0
  9
$CELTYPE
  6
ByLayer
  9
$CECOLOR
 62
256
  9
$CELTSCALE
 40
1.0
  9
$DISPSILH
 70
0
  9
$DIMSCALE
 40
1.0
  9
$DIMASZ
 40
2.5
  9
$DIMEXO
 40
0.625
  9
$DIMDLI
 40
3.75
  9
$DIMRND
 40
0.0
  9
$DIMDLE
 40
0.0
  9
$DIMEXE
 40
1.25
  9
$DIMTP
 40
0.0
  9
$DIMTM
 40
0.0
  9
$DIMTXT
 40
2.5
  9
$DIMCEN
 40
2.5
  9
$DIMTSZ
 40
0.0
  9
$DIMTOL
 70
0
  9
$DIMLIM
 70
0
  9
$DIMTIH
 70
0
  9
$DIMTOH
 70
0
  9
$DIMSE1
 70
0
  9
$DIMSE2
 70
0
  9
$DIMTAD
 70
1
  9
$DIMZIN
 70
8
  9
$DIMBLK
  1

  9
$DIMASO
 70
1
  9
$DIMSHO
 70
1
  9
$DIMPOST
  1

  9
$DIMAPOST
  1

  9
$DIMALT
 70
0
  9
$DIMALTD
 70
3
  9
$DIMALTF
 40
0.03937007874
  9
$DIMLFAC
 40
1.0
  9
$DIMTOFL
 70
1
  9
$DIMTVP
 40
0.0
  9
$DIMTIX
 70
0
  9
$DIMSOXD
 70
0
  9
$DIMSAH
 70
0
  9
$DIMBLK1
  1

  9
$DIMBLK2
  1

  9
$DIMSTYLE
  2
ISO-25
  9
$DIMCLRD
 70
0
  9
$DIMCLRE
 70
0
  9
$DIMCLRT
 70
0
  9
$DIMTFAC
 40
1.0
  9
$DIMGAP
 40
0.625
  9
$DIMJUST
 70
0
  9
$DIMSD1
 70
0
  9
$DIMSD2
 70
0
  9
$DIMTOLJ
 70
0
  9
$DIMTZIN
 70
8
  9
$DIMALTZ
 70
0
  9
$DIMALTTZ
 70
0
  9
$DIMUPT
 70
0
  9
$DIMDEC
 70
2
  9
$DIMTDEC
 70
2
  9
$DIMALTU
 70
2
  9
$DIMALTTD
 70
3
  9
$DIMTXSTY
  7
Standard
  9
$DIMAUNIT
 70
0
  9
$DIMADEC
 70
0
  9
$DIMALTRND
 40
0.0
  9
$DIMAZIN
 70
0
  9
$DIMDSEP
 70
44
  9
$DIMATFIT
 70
3
  9
$DIMFRAC
 70
0
  9
$DIMLDRBLK
  1

  9
$DIMLUNIT
 70
2
  9
$DIMLWD
 70
-2
  9
$DIMLWE
 70
-2
  9
$DIMTMOVE
 70
0
  9
$DIMFXL
 40
1.0
  9
$DIMFXLON
 70
0
  9
$DIMJOGANG
 40
0.785398163397
  9
$DIMTFILL
 70
0
  9
$DIMTFILLCLR
 70
0
  9
$DIMARCSYM
 70
0
  9
$DIMLTYPE
  6

  9
$DIMLTEX1
  6

  9
$DIMLTEX2
  6

  9
$DIMTXTDIRECTION
 70
0
  9
$LUNITS
 70
2
  9
$LUPREC
 70
4
  9
$SKETCHINC
 40
1.0
  9
$FILLETRAD
 40
10.0
  9
$AUNITS
 70
0
  9
$AUPREC
 70
2
  9
$MENU
  1
.
  9
$ELEVATION
 40
0.0
  9
$PELEVATION
 40
0.0
  9
$THICKNESS
 40
0.0
  9
$LIMCHECK
 70
0
  9
$CHAMFERA
 40
0.0
  9
$CHAMFERB
 40
0.0
  9
$CHAMFERC
 40
0.0
  9
$CHAMFERD
 40
0.0
  9
$SKPOLY
 70
0
  9
$TDCREATE
 40
2461106.641238426
  9
$TDUCREATE
 40
2458532.153996898
  9
$TDUPDATE
 40
2461106.641238426
  9
$TDUUPDATE
 40
2458532.1544311
  9
$TDINDWG
 40
0.0
  9
$TDUSRTIMER
 40
0.0
  9
$USRTIMER
 70
1
  9
$ANGBASE
 50
0.0
  9
$ANGDIR
 70
0
  9
$PDMODE
 70
0
  9
$PDSIZE
 40
0.0
  9
$PLINEWID
 40
0.0
  9
$SPLFRAME
 70
0
  9
$SPLINETYPE
 70
6
  9
$SPLINESEGS
 70
8
  9
$HANDSEED
  5
93
  9
$SURFTAB1
 70
6
  9
$SURFTAB2
 70
6
  9
$SURFTYPE
 70
6
  9
$SURFU
 70
6
  9
$SURFV
 70
6
  9
$UCSBASE
  2

  9
$UCSNAME
  2

  9
$UCSORG
 10
0.0
 20
0.0
 30
0.0
  9
$UCSXDIR
 10
1.0
 20
0.0
 30
0.0
  9
$UCSYDIR
 10
0.0
 20
1.0
 30
0.0
  9
$UCSORTHOREF
  2

  9
$UCSORTHOVIEW
 70
0
  9
$UCSORGTOP
 10
0.0
 20
0.0
 30
0.0
  9
$UCSORGBOTTOM
 10
0.0
 20
0.0
 30
0.0
  9
$UCSORGLEFT
 10
0.0
 20
0.0
 30
0.0
  9
$UCSORGRIGHT
 10
0.0
 20
0.0
 30
0.0
  9
$UCSORGFRONT
 10
0.0
 20
0.0
 30
0.0
  9
$UCSORGBACK
 10
0.0
 20
0.0
 30
0.0
  9
$PUCSBASE
  2

  9
$PUCSNAME
  2

  9
$PUCSORG
 10
0.0
 20
0.0
 30
0.0
  9
$PUCSXDIR
 10
1.0
 20
0.0
 30
0.0
  9
$PUCSYDIR
 10
0.0
 20
1.0
 30
0.0
  9
$PUCSORTHOREF
  2

  9
$PUCSORTHOVIEW
 70
0
  9
$PUCSORGTOP
 10
0.0
 20
0.0
 30
0.0
  9
$PUCSORGBOTTOM
 10
0.0
 20
0.0
 30
0.0
  9
$PUCSORGLEFT
 10
0.0
 20
0.0
 30
0.0
  9
$PUCSORGRIGHT
 10
0.0
 20
0.0
 30
0.0
  9
$PUCSORGFRONT
 10
0.0
 20
0.0
 30
0.0
  9
$PUCSORGBACK
 10
0.0
 20
0.0
 30
0.0
  9
$USERI1
 70
0
  9
$USERI2
 70
0
  9
$USERI3
 70
0
  9
$USERI4
 70
0
  9
$USERI5
 70
0
  9
$USERR1
 40
0.0
  9
$USERR2
 40
0.0
  9
$USERR3
 40
0.0
  9
$USERR4
 40
0.0
  9
$USERR5
 40
0.0
  9
$WORLDVIEW
 70
1
  9
$SHADEDGE
 70
3
  9
$SHADEDIF
 70
70
  9
$TILEMODE
 70
1
  9
$MAXACTVP
 70
64
  9
$PINSBASE
 10
0.0
 20
0.0
 30
0.0
  9
$PLIMCHECK
 70
0
  9
$PEXTMIN
 10
1e+20
 20
1e+20
 30
1e+20
  9
$PEXTMAX
 10
-1e+20
 20
-1e+20
 30
-1e+20
  9
$PLIMMIN
 10
0.0
 20
0.0
  9
$PLIMMAX
 10
420.0
 20
297.0
  9
$UNITMODE
 70
0
  9
$VISRETAIN
 70
1
  9
$PLINEGEN
 70
0
  9
$PSLTSCALE
 70
1
  9
$TREEDEPTH
 70
3020
  9
$CMLSTYLE
  2
Standard
  9
$CMLJUST
 70
0
  9
$CMLSCALE
 40
20.0
  9
$PROXYGRAPHICS
 70
1
  9
$MEASUREMENT
 70
1
  9
$CELWEIGHT
370
-1
  9
$ENDCAPS
280
0
  9
$JOINSTYLE
280
0
  9
$LWDISPLAY
290
0
  9
$INSUNITS
 70
6
  9
$HYPERLINKBASE
  1

  9
$STYLESHEET
  1

  9
$XEDIT
290
1
  9
$CEPSNTYPE
380
0
  9
$PSTYLEMODE
290
1
  9
$FINGERPRINTGUID
  2
{1590308F-6182-490B-9613-947D18DE575B}
  9
$VERSIONGUID
  2
{9A33E6EF-CA03-478E-93C3-3E673CD64287}
  9
$EXTNAMES
290
1
  9
$PSVPSCALE
 40
0.0
  9
$OLESTARTUP
290
0
  9
$SORTENTS
280
127
  9
$INDEXCTL
280
0
  9
$HIDETEXT
280
1
  9
$XCLIPFRAME
280
1
  9
$HALOGAP
280
0
  9
$OBSCOLOR
 70
257
  9
$OBSLTYPE
280
0
  9
$INTERSECTIONDISPLAY
280
0
  9
$INTERSECTIONCOLOR
 70
257
  9
$DIMASSOC
280
2
  9
$PROJECTNAME
  1

  9
$CAMERADISPLAY
290
0
  9
$LENSLENGTH
 40
50.0
  9
$CAMERAHEIGHT
 40
0.0
  9
$STEPSPERSEC
 40
24.0
  9
$STEPSIZE
 40
100.0
  9
$3DDWFPREC
 40
2.0
  9
$PSOLWIDTH
 40
0.005
  9
$PSOLHEIGHT
 40
0.08
  9
$LOFTANG1
 40
1.570796326795
  9
$LOFTANG2
 40
1.570796326795
  9
$LOFTMAG1
 40
0.0
  9
$LOFTMAG2
 40
0.0
  9
$LOFTPARAM
 70
7
  9
$LOFTNORMALS
280
1
  9
$LATITUDE
 40
37.795
  9
$LONGITUDE
 40
-122.394
  9
$NORTHDIRECTION
 40
0.0
  9
$TIMEZONE
 70
-8000
  9
$LIGHTGLYPHDISPLAY
280
1
  9
$TILEMODELIGHTSYNCH
280
1
  9
$CMATERIAL
347
20
  9
$SOLIDHIST
280
0
  9
$SHOWHIST
280
1
  9
$DWFFRAME
280
2
  9
$DGNFRAME
280
2
  9
$REALWORLDSCALE
290
1
  9
$INTERFERECOLOR
 62
256
  9
$CSHADOW
280
0
  9
$SHADOWPLANELOCATION
 40
0.0
  0
ENDSEC
  0
SECTION
  2
CLASSES
  0
CLASS
  1
ACDBDICTIONARYWDFLT
  2
AcDbDictionaryWithDefault
  3
ObjectDBX Classes
 90
0
 91
0
280
0
281
0
  0
CLASS
  1
SUN
  2
AcDbSun
  3
SCENEOE
 90
1153
 91
0
280
0
281
0
  0
CLASS
  1
VISUALSTYLE
  2
AcDbVisualStyle
  3
ObjectDBX Classes
 90
4095
 91
0
280
0
281
0
  0
CLASS
  1
MATERIAL
  2
AcDbMaterial
  3
ObjectDBX Classes
 90
1153
 91
0
280
0
281
0
  0
CLASS
  1
SCALE
  2
AcDbScale
  3
ObjectDBX Classes
 90
1153
 91
0
280
0
281
0
  0
CLASS
  1
TABLESTYLE
  2
AcDbTableStyle
  3
ObjectDBX Classes
 90
4095
 91
0
280
0
281
0
  0
CLASS
  1
MLEADERSTYLE
  2
AcDbMLeaderStyle
  3
ACDB_MLEADERSTYLE_CLASS
 90
4095
 91
0
280
0
281
0
  0
CLASS
  1
DICTIONARYVAR
  2
AcDbDictionaryVar
  3
ObjectDBX Classes
 90
0
 91
0
280
0
281
0
  0
CLASS
  1
CELLSTYLEMAP
  2
AcDbCellStyleMap
  3
ObjectDBX Classes
 90
1152
 91
0
280
0
281
0
  0
CLASS
  1
MENTALRAYRENDERSETTINGS
  2
AcDbMentalRayRenderSettings
  3
SCENEOE
 90
1024
 91
0
280
0
281
0
  0
CLASS
  1
ACDBDETAILVIEWSTYLE
  2
AcDbDetailViewStyle
  3
ObjectDBX Classes
 90
1025
 91
0
280
0
281
0
  0
CLASS
  1
ACDBSECTIONVIEWSTYLE
  2
AcDbSectionViewStyle
  3
ObjectDBX Classes
 90
1025
 91
0
280
0
281
0
  0
CLASS
  1
RASTERVARIABLES
  2
AcDbRasterVariables
  3
ISM
 90
0
 91
0
280
0
281
0
  0
CLASS
  1
ACDBPLACEHOLDER
  2
AcDbPlaceHolder
  3
ObjectDBX Classes
 90
0
 91
0
280
0
281
0
  0
CLASS
  1
LAYOUT
  2
AcDbLayout
  3
ObjectDBX Classes
 90
0
 91
0
280
0
281
0
  0
ENDSEC
  0
SECTION
  2
TABLES
  0
TABLE
  2
VPORT
  5
8
330
0
100
AcDbSymbolTable
 70
1
  0
VPORT
  5
23
330
8
100
AcDbSymbolTableRecord
100
AcDbViewportTableRecord
  2
*Active
 70
0
 10
0.0
 20
0.0
 11
1.0
 21
1.0
 12
0.0
 22
0.0
 13
0.0
 23
0.0
 14
0.5
 24
0.5
 15
0.5
 25
0.5
 16
0.0
 26
0.0
 36
1.0
 17
0.0
 27
0.0
 37
0.0
 40
1000.0
 41
1.34
 42
50.0
 43
0.0
 44
0.0
 50
0.0
 51
0.0
 71
0
 72
1000
 73
1
 74
3
 75
0
 76
0
 77
0
 78
0
281
0
 65
0
146
0.0
  0
ENDTAB
  0
TABLE
  2
LTYPE
  5
2
330
0
100
AcDbSymbolTable
 70
3
  0
LTYPE
  5
24
330
2
100
AcDbSymbolTableRecord
100
AcDbLinetypeTableRecord
  2
ByBlock
 70
0
  3

 72
65
 73
0
 40
0.0
  0
LTYPE
  5
25
330
2
100
AcDbSymbolTableRecord
100
AcDbLinetypeTableRecord
  2
ByLayer
 70
0
  3

 72
65
 73
0
 40
0.0
  0
LTYPE
  5
26
330
2
100
AcDbSymbolTableRecord
100
AcDbLinetypeTableRecord
  2
Continuous
 70
0
  3

 72
65
 73
0
 40
0.0
  0
ENDTAB
  0
TABLE
  2
LAYER
  5
1
330
0
100
AcDbSymbolTable
 70
8
  0
LAYER
  5
27
330
1
100
AcDbSymbolTableRecord
100
AcDbLayerTableRecord
  2
0
 70
0
 62
7
  6
Continuous
370
-3
390
13
347
21
  0
LAYER
  5
28
330
1
100
AcDbSymbolTableRecord
100
AcDbLayerTableRecord
  2
Defpoints
 70
0
 62
7
  6
Continuous
290
0
370
-3
390
13
347
21
  0
LAYER
  5
2F
330
1
100
AcDbSymbolTableRecord
100
AcDbLayerTableRecord
  2
PARCEL
 70
0
 62
7
  6
Continuous
370
-3
390
13
347
21
  0
LAYER
  5
30
330
1
100
AcDbSymbolTableRecord
100
AcDbLayerTableRecord
  2
ROAD
 70
0
 62
1
  6
Continuous
370
-3
390
13
347
21
  0
LAYER
  5
31
330
1
100
AcDbSymbolTableRecord
100
AcDbLayerTableRecord
  2
OPT_ROAD
 70
0
 62
6
  6
Continuous
370
-3
390
13
347
21
  0
LAYER
  5
32
330
1
100
AcDbSymbolTableRecord
100
AcDbLayerTableRecord
  2
LOT_LINES
 70
0
 62
3
  6
Continuous
370
-3
390
13
347
21
  0
LAYER
  5
33
330
1
100
AcDbSymbolTableRecord
100
AcDbLayerTableRecord
  2
EASEMENTS
 70
0
 62
5
  6
Continuous
370
-3
390
13
347
21
  0
LAYER
  5
34
330
1
100
AcDbSymbolTableRecord
100
AcDbLayerTableRecord
  2
LOT_LABELS
 70
0
 62
2
  6
Continuous
370
-3
390
13
347
21
  0
ENDTAB
  0
TABLE
  2
STYLE
  5
5
330
0
100
AcDbSymbolTable
 70
1
  0
STYLE
  5
29
330
5
100
AcDbSymbolTableRecord
100
AcDbTextStyleTableRecord
  2
Standard
 70
0
 40
0.0
 41
1.0
 50
0.0
 71
0
 42
2.5
  3
txt
  4

  0
ENDTAB
  0
TABLE
  2
VIEW
  5
7
330
0
100
AcDbSymbolTable
 70
0
  0
ENDTAB
  0
TABLE
  2
UCS
  5
6
330
0
100
AcDbSymbolTable
 70
0
  0
ENDTAB
  0
TABLE
  2
APPID
  5
3
330
0
100
AcDbSymbolTable
 70
3
  0
APPID
  5
2A
330
3
100
AcDbSymbolTableRecord
100
AcDbRegAppTableRecord
  2
ACAD
 70
0
  0
APPID
  5
90
330
3
100
AcDbSymbolTableRecord
100
AcDbRegAppTableRecord
  2
HATCHBACKGROUNDCOLOR
 70
0
  0
APPID
  5
91
330
3
100
AcDbSymbolTableRecord
100
AcDbRegAppTableRecord
  2
EZDXF
 70
0
  0
ENDTAB
  0
TABLE
  2
DIMSTYLE
  5
4
330
0
100
AcDbSymbolTable
 70
1
100
AcDbDimStyleTable
  0
DIMSTYLE
105
2B
330
4
100
AcDbSymbolTableRecord
100
AcDbDimStyleTableRecord
  2
Standard
 70
0
 40
1.0
 41
2.5
 42
0.625
 43
3.75
 44
1.25
 45
0.0
 46
0.0
 47
0.0
 48
0.0
 49
2.5
140
2.5
141
2.5
142
0.0
143
0.03937007874
144
1.0
145
0.0
146
1.0
147
0.625
148
0.0
 69
0
 70
0
 71
0
 72
0
 73
0
 74
0
 75
0
 76
0
 77
1
 78
8
 79
3
170
0
171
3
172
1
173
0
174
0
175
0
176
0
177
0
178
0
179
2
271
2
272
2
273
2
274
3
275
0
276
0
277
2
278
44
279
0
280
0
281
0
282
0
283
0
284
8
285
0
286
0
288
0
289
3
290
0
371
-2
372
-2
  0
ENDTAB
  0
TABLE
  2
BLOCK_RECORD
  5
9
330
0
100
AcDbSymbolTable
 70
2
  0
BLOCK_RECORD
  5
17
330
9
100
AcDbSymbolTableRecord
100
AcDbBlockTableRecord
  2
*Model_Space
340
1A
 70
0
280
1
281
0
  0
BLOCK_RECORD
  5
1B
330
9
100
AcDbSymbolTableRecord
100
AcDbBlockTableRecord
  2
*Paper_Space
340
1E
 70
0
280
1
281
0
  0
ENDTAB
  0
ENDSEC
  0
SECTION
  2
BLOCKS
  0
BLOCK
  5
18
330
17
100
AcDbEntity
  8
0
100
AcDbBlockBegin
  2
*Model_Space
 70
0
 10
0.0
 20
0.0
 30
0.0
  3
*Model_Space
  1

  0
ENDBLK
  5
19
330
17
100
AcDbEntity
  8
0
100
AcDbBlockEnd
  0
BLOCK
  5
1C
330
1B
100
AcDbEntity
  8
0
100
AcDbBlockBegin
  2
*Paper_Space
 70
0
 10
0.0
 20
0.0
 30
0.0
  3
*Paper_Space
  1

  0
ENDBLK
  5
1D
330
1B
100
AcDbEntity
  8
0
100
AcDbBlockEnd
  0
ENDSEC
  0
SECTION
  2
ENTITIES
  0
LWPOLYLINE
  5
35
330
17
100
AcDbEntity
  8
PARCEL
100
AcDbPolyline
 90
6
 70
1
 10
0.0
 20
0.0
 10
0.0
 20
410.0
 10
240.0
 20
620.0
 10
720.0
 20
560.0
 10
860.0
 20
220.0
 10
780.0
 20
0.0
  0
LWPOLYLINE
  5
36
330
17
100
AcDbEntity
  8
OPT_ROAD
100
AcDbPolyline
 90
4
 70
1
 10
0.0
 20
149.62881131241716
 10
0.0
 20
189.62881131241716
 10
848.9559313863335
 20
189.62881131241716
 10
834.4104768408789
 20
149.62881131241716
  0
LWPOLYLINE
  5
37
330
17
100
AcDbEntity
  8
OPT_ROAD
100
AcDbPolyline
 90
4
 70
1
 10
45.29007007133389
 20
449.62881131241716
 10
91.00435578561961
 20
489.62881131241716
 10
748.9763718125341
 20
489.62881131241716
 10
765.4469600478283
 20
449.62881131241716
  0
LWPOLYLINE
  5
38
330
17
100
AcDbEntity
  8
LOT_LINES
100
AcDbPolyline
 90
4
 70
1
 10
64.18542129545223
 20
149.62881131241716
 10
64.18542129545223
 20
39.628811312417156
 10
0.0
 20
39.628811312417156
 10
0.0
 20
149.62881131241716
  0
LWPOLYLINE
  5
39
330
17
100
AcDbEntity
  8
LOT_LINES
100
AcDbPolyline
 90
4
 70
1
 10
128.37084259090446
 20
149.62881131241716
 10
128.37084259090446
 20
39.628811312417156
 10
64.18542129545223
 20
39.628811312417156
 10
64.18542129545223
 20
149.62881131241716
  0
LWPOLYLINE
  5
3A
330
17
100
AcDbEntity
  8
LOT_LINES
100
AcDbPolyline
 90
4
 70
1
 10
192.5562638863567
 20
149.62881131241716
 10
192.5562638863567
 20
39.628811312417156
 10
128.37084259090446
 20
39.628811312417156
 10
128.37084259090446
 20
149.62881131241716
  0
LWPOLYLINE
  5
3B
330
17
100
AcDbEntity
  8
LOT_LINES
100
AcDbPolyline
 90
4
 70
1
 10
256.7416851818089
 20
149.62881131241716
 10
256.7416851818089
 20
39.628811312417156
 10
192.5562638863567
 20
39.628811312417156
 10
192.5562638863567
 20
149.62881131241716
  0
LWPOLYLINE
  5
3C
330
17
100
AcDbEntity
  8
LOT_LINES
100
AcDbPolyline
 90
4
 70
1
 10
320.92710647726113
 20
149.62881131241716
 10
320.92710647726113
 20
39.628811312417156
 10
256.7416851818089
 20
39.628811312417156
 10
256.7416851818089
 20
149.62881131241716
  0
LWPOLYLINE
  5
3D
330
17
100
AcDbEntity
  8
LOT_LINES
100
AcDbPolyline
 90
4
 70
1
 10
385.1125277727134
 20
149.62881131241716
 10
385.1125277727134
 20
39.628811312417156
 10
320.92710647726113
 20
39.628811312417156
 10
320.92710647726113
 20
149.62881131241716
  0
LWPOLYLINE
  5
3E
330
17
100
AcDbEntity
  8
LOT_LINES
100
AcDbPolyline
 90
4
 70
1
 10
449.2979490681656
 20
149.62881131241716
 10
449.2979490681656
 20
39.628811312417156
 10
385.1125277727134
 20
39.628811312417156
 10
385.1125277727134
 20
149.62881131241716
  0
LWPOLYLINE
  5
3F
330
17
100
AcDbEntity
  8
LOT_LINES
100
AcDbPolyline
 90
4
 70
1
 10
513.4833703636178
 20
149.62881131241716
 10
513.4833703636178
 20
39.628811312417156
 10
449.2979490681656
 20
39.628811312417156
 10
449.2979490681656
 20
149.62881131241716
  0
LWPOLYLINE
  5
40
330
17
100
AcDbEntity
  8
LOT_LINES
100
AcDbPolyline
 90
4
 70
1
 10
577.66879165907
 20
149.62881131241716
 10
577.66879165907
 20
39.628811312417156
 10
513.4833703636178
 20
39.628811312417156
 10
513.4833703636178
 20
149.62881131241716
  0
LWPOLYLINE
  5
41
330
17
100
AcDbEntity
  8
LOT_LINES
100
AcDbPolyline
 90
4
 70
1
 10
641.8542129545223
 20
149.62881131241716
 10
641.8542129545223
 20
39.628811312417156
 10
577.66879165907
 20
39.628811312417156
 10
577.66879165907
 20
149.62881131241716
  0
LWPOLYLINE
  5
42
330
17
100
AcDbEntity
  8
LOT_LINES
100
AcDbPolyline
 90
4
 70
1
 10
706.0396342499745
 20
149.62881131241716
 10
706.0396342499745
 20
39.628811312417156
 10
641.8542129545223
 20
39.628811312417156
 10
641.8542129545223
 20
149.62881131241716
  0
LWPOLYLINE
  5
43
330
17
100
AcDbEntity
  8
LOT_LINES
100
AcDbPolyline
 90
4
 70
1
 10
770.2250555454268
 20
149.62881131241716
 10
770.2250555454268
 20
39.628811312417156
 10
706.0396342499745
 20
39.628811312417156
 10
706.0396342499745
 20
149.62881131241716
  0
LWPOLYLINE
  5
44
330
17
100
AcDbEntity
  8
LOT_LINES
100
AcDbPolyline
 90
5
 70
1
 10
788.3162220015954
 20
189.62881131241716
 10
788.3162220015954
 20
299.62881131241716
 10
827.2116659301812
 20
299.62881131241716
 10
848.9559313863335
 20
246.82130949033285
 10
848.9559313863335
 20
189.62881131241716
  0
LWPOLYLINE
  5
45
330
17
100
AcDbEntity
  8
LOT_LINES
100
AcDbPolyline
 90
4
 70
1
 10
727.6765126168573
 20
189.62881131241716
 10
727.6765126168573
 20
299.62881131241716
 10
788.3162220015954
 20
299.62881131241716
 10
788.3162220015954
 20
189.62881131241716
  0
LWPOLYLINE
  5
46
330
17
100
AcDbEntity
  8
LOT_LINES
100
AcDbPolyline
 90
4
 70
1
 10
667.0368032321192
 20
189.62881131241716
 10
667.0368032321192
 20
299.62881131241716
 10
727.6765126168573
 20
299.62881131241716
 10
727.6765126168573
 20
189.62881131241716
  0
LWPOLYLINE
  5
47
330
17
100
AcDbEntity
  8
LOT_LINES
100
AcDbPolyline
 90
4
 70
1
 10
606.3970938473811
 20
189.62881131241716
 10
606.3970938473811
 20
299.62881131241716
 10
667.0368032321192
 20
299.62881131241716
 10
667.0368032321192
 20
189.62881131241716
  0
LWPOLYLINE
  5
48
330
17
100
AcDbEntity
  8
LOT_LINES
100
AcDbPolyline
 90
4
 70
1
 10
545.7573844626429
 20
189.62881131241716
 10
545.7573844626429
 20
299.62881131241716
 10
606.3970938473811
 20
299.62881131241716
 10
606.3970938473811
 20
189.62881131241716
  0
LWPOLYLINE
  5
49
330
17
100
AcDbEntity
  8
LOT_LINES
100
AcDbPolyline
 90
4
 70
1
 10
485.1176750779049
 20
189.62881131241716
 10
485.1176750779049
 20
299.62881131241716
 10
545.7573844626429
 20
299.62881131241716
 10
545.7573844626429
 20
189.62881131241716
  0
LWPOLYLINE
  5
4A
330
17
100
AcDbEntity
  8
LOT_LINES
100
AcDbPolyline
 90
4
 70
1
 10
424.47796569316677
 20
189.62881131241716
 10
424.47796569316677
 20
299.62881131241716
 10
485.1176750779049
 20
299.62881131241716
 10
485.1176750779049
 20
189.62881131241716
  0
LWPOLYLINE
  5
4B
330
17
100
AcDbEntity
  8
LOT_LINES
100
AcDbPolyline
 90
4
 70
1
 10
363.8382563084287
 20
189.62881131241716
 10
363.8382563084287
 20
299.62881131241716
 10
424.47796569316677
 20
299.62881131241716
 10
424.47796569316677
 20
189.62881131241716
  0
LWPOLYLINE
  5
4C
330
17
100
AcDbEntity
  8
LOT_LINES
100
AcDbPolyline
 90
4
 70
1
 10
303.1985469236905
 20
189.62881131241716
 10
303.1985469236905
 20
299.62881131241716
 10
363.8382563084287
 20
299.62881131241716
 10
363.8382563084287
 20
189.62881131241716
  0
LWPOLYLINE
  5
4D
330
17
100
AcDbEntity
  8
LOT_LINES
100
AcDbPolyline
 90
4
 70
1
 10
242.5588375389524
 20
189.62881131241716
 10
242.5588375389524
 20
299.62881131241716
 10
303.1985469236905
 20
299.62881131241716
 10
303.1985469236905
 20
189.62881131241716
  0
LWPOLYLINE
  5
4E
330
17
100
AcDbEntity
  8
LOT_LINES
100
AcDbPolyline
 90
4
 70
1
 10
181.91912815421426
 20
189.62881131241716
 10
181.91912815421426
 20
299.62881131241716
 10
242.5588375389524
 20
299.62881131241716
 10
242.5588375389524
 20
189.62881131241716
  0
LWPOLYLINE
  5
4F
330
17
100
AcDbEntity
  8
LOT_LINES
100
AcDbPolyline
 90
4
 70
1
 10
121.27941876947625
 20
189.62881131241716
 10
121.27941876947625
 20
299.62881131241716
 10
181.91912815421426
 20
299.62881131241716
 10
181.91912815421426
 20
189.62881131241716
  0
LWPOLYLINE
  5
50
330
17
100
AcDbEntity
  8
LOT_LINES
100
AcDbPolyline
 90
4
 70
1
 10
60.639709384738126
 20
189.62881131241716
 10
60.639709384738126
 20
299.62881131241716
 10
121.27941876947625
 20
299.62881131241716
 10
121.27941876947625
 20
189.62881131241716
  0
LWPOLYLINE
  5
51
330
17
100
AcDbEntity
  8
LOT_LINES
100
AcDbPolyline
 90
4
 70
1
 10
0.0
 20
189.62881131241716
 10
0.0
 20
299.62881131241716
 10
60.639709384738126
 20
299.62881131241716
 10
60.639709384738126
 20
189.62881131241716
  0
LWPOLYLINE
  5
52
330
17
100
AcDbEntity
  8
LOT_LINES
100
AcDbPolyline
 90
4
 70
1
 10
436.1779812990792
 20
489.62881131241716
 10
436.1779812990792
 20
595.4777523376151
 10
498.7376594017702
 20
587.6577925747787
 10
498.7376594017702
 20
489.62881131241716
  0
LWPOLYLINE
  5
53
330
17
100
AcDbEntity
  8
LOT_LINES
100
AcDbPolyline
 90
5
 70
1
 10
373.6183031963882
 20
489.62881131241716
 10
373.6183031963882
 20
599.6288113124172
 10
402.9695095006629
 20
599.6288113124172
 10
436.1779812990792
 20
595.4777523376151
 10
436.1779812990792
 20
489.62881131241716
  0
LWPOLYLINE
  5
54
330
17
100
AcDbEntity
  8
LOT_LINES
100
AcDbPolyline
 90
4
 70
1
 10
311.0586250936972
 20
489.62881131241716
 10
311.0586250936972
 20
599.6288113124172
 10
373.6183031963882
 20
599.6288113124172
 10
373.6183031963882
 20
489.62881131241716
  0
LWPOLYLINE
  5
55
330
17
100
AcDbEntity
  8
LOT_LINES
100
AcDbPolyline
 90
4
 70
1
 10
248.49894699100622
 20
489.62881131241716
 10
248.49894699100622
 20
599.6288113124172
 10
311.0586250936972
 20
599.6288113124172
 10
311.0586250936972
 20
489.62881131241716
  0
LWPOLYLINE
  5
56
330
17
100
AcDbEntity
  8
LOT_LINES
100
AcDbPolyline
 90
5
 70
1
 10
185.93926888831527
 20
489.62881131241716
 10
185.93926888831527
 20
572.6968602772758
 10
216.71864149990532
 20
599.6288113124172
 10
248.49894699100622
 20
599.6288113124172
 10
248.49894699100622
 20
489.62881131241716
  0
LWPOLYLINE
  5
57
330
17
100
AcDbEntity
  8
LOT_LINES
100
AcDbPolyline
 90
4
 70
1
 10
139.85017902091857
 20
449.62881131241716
 10
139.85017902091857
 20
339.62881131241716
 10
77.29050091822756
 20
339.62881131241716
 10
77.29050091822756
 20
449.62881131241716
  0
LWPOLYLINE
  5
58
330
17
100
AcDbEntity
  8
LOT_LINES
100
AcDbPolyline
 90
4
 70
1
 10
202.40985712360947
 20
449.62881131241716
 10
202.40985712360947
 20
339.62881131241716
 10
139.85017902091857
 20
339.62881131241716
 10
139.85017902091857
 20
449.62881131241716
  0
LWPOLYLINE
  5
59
330
17
100
AcDbEntity
  8
LOT_LINES
100
AcDbPolyline
 90
4
 70
1
 10
264.9695352263005
 20
449.62881131241716
 10
264.9695352263005
 20
339.62881131241716
 10
202.40985712360947
 20
339.62881131241716
 10
202.40985712360947
 20
449.62881131241716
  0
LWPOLYLINE
  5
5A
330
17
100
AcDbEntity
  8
LOT_LINES
100
AcDbPolyline
 90
4
 70
1
 10
327.5292133289915
 20
449.62881131241716
 10
327.5292133289915
 20
339.62881131241716
 10
264.9695352263005
 20
339.62881131241716
 10
264.9695352263005
 20
449.62881131241716
  0
LWPOLYLINE
  5
5B
330
17
100
AcDbEntity
  8
LOT_LINES
100
AcDbPolyline
 90
4
 70
1
 10
390.0888914316825
 20
449.62881131241716
 10
390.0888914316825
 20
339.62881131241716
 10
327.5292133289915
 20
339.62881131241716
 10
327.5292133289915
 20
449.62881131241716
  0
LWPOLYLINE
  5
5C
330
17
100
AcDbEntity
  8
LOT_LINES
100
AcDbPolyline
 90
4
 70
1
 10
452.6485695343734
 20
449.62881131241716
 10
452.6485695343734
 20
339.62881131241716
 10
390.0888914316825
 20
339.62881131241716
 10
390.0888914316825
 20
449.62881131241716
  0
LWPOLYLINE
  5
5D
330
17
100
AcDbEntity
  8
LOT_LINES
100
AcDbPolyline
 90
4
 70
1
 10
515.2082476370645
 20
449.62881131241716
 10
515.2082476370645
 20
339.62881131241716
 10
452.6485695343734
 20
339.62881131241716
 10
452.6485695343734
 20
449.62881131241716
  0
LWPOLYLINE
  5
5E
330
17
100
AcDbEntity
  8
LOT_LINES
100
AcDbPolyline
 90
4
 70
1
 10
577.7679257397554
 20
449.62881131241716
 10
577.7679257397554
 20
339.62881131241716
 10
515.2082476370645
 20
339.62881131241716
 10
515.2082476370645
 20
449.62881131241716
  0
LWPOLYLINE
  5
5F
330
17
100
AcDbEntity
  8
LOT_LINES
100
AcDbPolyline
 90
4
 70
1
 10
640.3276038424465
 20
449.62881131241716
 10
640.3276038424465
 20
339.62881131241716
 10
577.7679257397554
 20
339.62881131241716
 10
577.7679257397554
 20
449.62881131241716
  0
LWPOLYLINE
  5
60
330
17
100
AcDbEntity
  8
LOT_LINES
100
AcDbPolyline
 90
4
 70
1
 10
702.8872819451374
 20
449.62881131241716
 10
702.8872819451374
 20
339.62881131241716
 10
640.3276038424465
 20
339.62881131241716
 10
640.3276038424465
 20
449.62881131241716
  0
LWPOLYLINE
  5
61
330
17
100
AcDbEntity
  8
LOT_LINES
100
AcDbPolyline
 90
4
 70
1
 10
765.4469600478283
 20
449.62881131241716
 10
765.4469600478283
 20
339.62881131241716
 10
702.8872819451374
 20
339.62881131241716
 10
702.8872819451374
 20
449.62881131241716
  0
LWPOLYLINE
  5
62
330
17
100
AcDbEntity
  8
EASEMENTS
100
AcDbPolyline
 90
4
 70
1
 10
853.3195677499699
 20
201.62881131241716
 10
848.9559313863335
 20
189.62881131241716
 10
0.0
 20
189.62881131241716
 10
0.0
 20
201.62881131241716
  0
LWPOLYLINE
  5
63
330
17
100
AcDbEntity
  8
EASEMENTS
100
AcDbPolyline
 90
4
 70
1
 10
834.4104768408789
 20
149.62881131241716
 10
830.0468404772427
 20
137.62881131241716
 10
0.0
 20
137.62881131241716
 10
0.0
 20
149.62881131241716
  0
LWPOLYLINE
  5
64
330
17
100
AcDbEntity
  8
EASEMENTS
100
AcDbPolyline
 90
4
 70
1
 10
765.4469600478283
 20
449.62881131241716
 10
770.3881365184164
 20
437.62881131241716
 10
31.575784357048178
 20
437.62881131241716
 10
45.29007007133389
 20
449.62881131241716
  0
LWPOLYLINE
  5
65
330
17
100
AcDbEntity
  8
EASEMENTS
100
AcDbPolyline
 90
4
 70
1
 10
744.0351953419458
 20
501.62881131241716
 10
748.9763718125341
 20
489.62881131241716
 10
91.00435578561961
 20
489.62881131241716
 10
104.71864149990532
 20
501.62881131241716
  0
TEXT
  5
66
330
17
100
AcDbEntity
  8
LOT_LABELS
100
AcDbText
 10
32.092710647726115
 20
94.62881131241716
 30
0.0
 40
14.0
  1
LOT_1
 11
32.092710647726115
 21
94.62881131241716
 31
0.0
100
AcDbText
  0
TEXT
  5
67
330
17
100
AcDbEntity
  8
LOT_LABELS
100
AcDbText
 10
96.27813194317835
 20
94.62881131241716
 30
0.0
 40
14.0
  1
LOT_2
 11
96.27813194317835
 21
94.62881131241716
 31
0.0
100
AcDbText
  0
TEXT
  5
68
330
17
100
AcDbEntity
  8
LOT_LABELS
100
AcDbText
 10
160.4635532386306
 20
94.62881131241716
 30
0.0
 40
14.0
  1
LOT_3
 11
160.4635532386306
 21
94.62881131241716
 31
0.0
100
AcDbText
  0
TEXT
  5
69
330
17
100
AcDbEntity
  8
LOT_LABELS
100
AcDbText
 10
224.6489745340828
 20
94.62881131241716
 30
0.0
 40
14.0
  1
LOT_4
 11
224.6489745340828
 21
94.62881131241716
 31
0.0
100
AcDbText
  0
TEXT
  5
6A
330
17
100
AcDbEntity
  8
LOT_LABELS
100
AcDbText
 10
288.834395829535
 20
94.62881131241716
 30
0.0
 40
14.0
  1
LOT_5
 11
288.834395829535
 21
94.62881131241716
 31
0.0
100
AcDbText
  0
TEXT
  5
6B
330
17
100
AcDbEntity
  8
LOT_LABELS
100
AcDbText
 10
353.0198171249873
 20
94.62881131241716
 30
0.0
 40
14.0
  1
LOT_6
 11
353.0198171249873
 21
94.62881131241716
 31
0.0
100
AcDbText
  0
TEXT
  5
6C
330
17
100
AcDbEntity
  8
LOT_LABELS
100
AcDbText
 10
417.2052384204395
 20
94.62881131241716
 30
0.0
 40
14.0
  1
LOT_7
 11
417.2052384204395
 21
94.62881131241716
 31
0.0
100
AcDbText
  0
TEXT
  5
6D
330
17
100
AcDbEntity
  8
LOT_LABELS
100
AcDbText
 10
481.39065971589173
 20
94.62881131241716
 30
0.0
 40
14.0
  1
LOT_8
 11
481.39065971589173
 21
94.62881131241716
 31
0.0
100
AcDbText
  0
TEXT
  5
6E
330
17
100
AcDbEntity
  8
LOT_LABELS
100
AcDbText
 10
545.576081011344
 20
94.62881131241716
 30
0.0
 40
14.0
  1
LOT_9
 11
545.576081011344
 21
94.62881131241716
 31
0.0
100
AcDbText
  0
TEXT
  5
6F
330
17
100
AcDbEntity
  8
LOT_LABELS
100
AcDbText
 10
609.7615023067962
 20
94.62881131241716
 30
0.0
 40
14.0
  1
LOT_10
 11
609.7615023067962
 21
94.62881131241716
 31
0.0
100
AcDbText
  0
TEXT
  5
70
330
17
100
AcDbEntity
  8
LOT_LABELS
100
AcDbText
 10
673.9469236022484
 20
94.62881131241716
 30
0.0
 40
14.0
  1
LOT_11
 11
673.9469236022484
 21
94.62881131241716
 31
0.0
100
AcDbText
  0
TEXT
  5
71
330
17
100
AcDbEntity
  8
LOT_LABELS
100
AcDbText
 10
738.1323448977007
 20
94.62881131241716
 30
0.0
 40
14.0
  1
LOT_12
 11
738.1323448977007
 21
94.62881131241716
 31
0.0
100
AcDbText
  0
TEXT
  5
72
330
17
100
AcDbEntity
  8
LOT_LABELS
100
AcDbText
 10
818.6360766939645
 20
218.225060401375
 30
0.0
 40
14.0
  1
LOT_13
 11
818.6360766939645
 21
218.225060401375
 31
0.0
100
AcDbText
  0
TEXT
  5
73
330
17
100
AcDbEntity
  8
LOT_LABELS
100
AcDbText
 10
757.9963673092263
 20
244.62881131241716
 30
0.0
 40
14.0
  1
LOT_14
 11
757.9963673092263
 21
244.62881131241716
 31
0.0
100
AcDbText
  0
TEXT
  5
74
330
17
100
AcDbEntity
  8
LOT_LABELS
100
AcDbText
 10
697.3566579244882
 20
244.62881131241716
 30
0.0
 40
14.0
  1
LOT_15
 11
697.3566579244882
 21
244.62881131241716
 31
0.0
100
AcDbText
  0
TEXT
  5
75
330
17
100
AcDbEntity
  8
LOT_LABELS
100
AcDbText
 10
636.7169485397501
 20
244.62881131241716
 30
0.0
 40
14.0
  1
LOT_16
 11
636.7169485397501
 21
244.62881131241716
 31
0.0
100
AcDbText
  0
TEXT
  5
76
330
17
100
AcDbEntity
  8
LOT_LABELS
100
AcDbText
 10
576.077239155012
 20
244.62881131241716
 30
0.0
 40
14.0
  1
LOT_17
 11
576.077239155012
 21
244.62881131241716
 31
0.0
100
AcDbText
  0
TEXT
  5
77
330
17
100
AcDbEntity
  8
LOT_LABELS
100
AcDbText
 10
515.4375297702738
 20
244.62881131241716
 30
0.0
 40
14.0
  1
LOT_18
 11
515.4375297702738
 21
244.62881131241716
 31
0.0
100
AcDbText
  0
TEXT
  5
78
330
17
100
AcDbEntity
  8
LOT_LABELS
100
AcDbText
 10
454.79782038553583
 20
244.62881131241716
 30
0.0
 40
14.0
  1
LOT_19
 11
454.79782038553583
 21
244.62881131241716
 31
0.0
100
AcDbText
  0
TEXT
  5
79
330
17
100
AcDbEntity
  8
LOT_LABELS
100
AcDbText
 10
394.1581110007977
 20
244.62881131241716
 30
0.0
 40
14.0
  1
LOT_20
 11
394.1581110007977
 21
244.62881131241716
 31
0.0
100
AcDbText
  0
TEXT
  5
7A
330
17
100
AcDbEntity
  8
LOT_LABELS
100
AcDbText
 10
333.5184016160596
 20
244.62881131241716
 30
0.0
 40
14.0
  1
LOT_21
 11
333.5184016160596
 21
244.62881131241716
 31
0.0
100
AcDbText
  0
TEXT
  5
7B
330
17
100
AcDbEntity
  8
LOT_LABELS
100
AcDbText
 10
272.87869223132145
 20
244.62881131241716
 30
0.0
 40
14.0
  1
LOT_22
 11
272.87869223132145
 21
244.62881131241716
 31
0.0
100
AcDbText
  0
TEXT
  5
7C
330
17
100
AcDbEntity
  8
LOT_LABELS
100
AcDbText
 10
212.23898284658333
 20
244.62881131241716
 30
0.0
 40
14.0
  1
LOT_23
 11
212.23898284658333
 21
244.62881131241716
 31
0.0
100
AcDbText
  0
TEXT
  5
7D
330
17
100
AcDbEntity
  8
LOT_LABELS
100
AcDbText
 10
151.59927346184526
 20
244.62881131241716
 30
0.0
 40
14.0
  1
LOT_24
 11
151.59927346184526
 21
244.62881131241716
 31
0.0
100
AcDbText
  0
TEXT
  5
7E
330
17
100
AcDbEntity
  8
LOT_LABELS
100
AcDbText
 10
90.95956407710719
 20
244.62881131241716
 30
0.0
 40
14.0
  1
LOT_25
 11
90.95956407710719
 21
244.62881131241716
 31
0.0
100
AcDbText
  0
TEXT
  5
7F
330
17
100
AcDbEntity
  8
LOT_LABELS
100
AcDbText
 10
30.319854692369063
 20
244.62881131241716
 30
0.0
 40
14.0
  1
LOT_26
 11
30.319854692369063
 21
244.62881131241716
 31
0.0
100
AcDbText
  0
TEXT
  5
80
330
17
100
AcDbEntity
  8
LOT_LABELS
100
AcDbText
 10
467.4578203504247
 20
538.6433019435979
 30
0.0
 40
14.0
  1
LOT_27
 11
467.4578203504247
 21
538.6433019435979
 31
0.0
100
AcDbText
  0
TEXT
  5
81
330
17
100
AcDbEntity
  8
LOT_LABELS
100
AcDbText
 10
404.8981422477337
 20
542.5532818250161
 30
0.0
 40
14.0
  1
LOT_28
 11
404.8981422477337
 21
542.5532818250161
 31
0.0
100
AcDbText
  0
TEXT
  5
82
330
17
100
AcDbEntity
  8
LOT_LABELS
100
AcDbText
 10
342.3384641450427
 20
544.6288113124172
 30
0.0
 40
14.0
  1
LOT_29
 11
342.3384641450427
 21
544.6288113124172
 31
0.0
100
AcDbText
  0
TEXT
  5
83
330
17
100
AcDbEntity
  8
LOT_LABELS
100
AcDbText
 10
279.7787860423517
 20
544.6288113124172
 30
0.0
 40
14.0
  1
LOT_30
 11
279.7787860423517
 21
544.6288113124172
 31
0.0
100
AcDbText
  0
TEXT
  5
84
330
17
100
AcDbEntity
  8
LOT_LABELS
100
AcDbText
 10
217.21910793966074
 20
531.1628357948465
 30
0.0
 40
14.0
  1
LOT_31
 11
217.21910793966074
 21
531.1628357948465
 31
0.0
100
AcDbText
  0
TEXT
  5
85
330
17
100
AcDbEntity
  8
LOT_LABELS
100
AcDbText
 10
108.57033996957307
 20
394.62881131241716
 30
0.0
 40
14.0
  1
LOT_32
 11
108.57033996957307
 21
394.62881131241716
 31
0.0
100
AcDbText
  0
TEXT
  5
86
330
17
100
AcDbEntity
  8
LOT_LABELS
100
AcDbText
 10
171.13001807226402
 20
394.62881131241716
 30
0.0
 40
14.0
  1
LOT_33
 11
171.13001807226402
 21
394.62881131241716
 31
0.0
100
AcDbText
  0
TEXT
  5
87
330
17
100
AcDbEntity
  8
LOT_LABELS
100
AcDbText
 10
233.68969617495497
 20
394.62881131241716
 30
0.0
 40
14.0
  1
LOT_34
 11
233.68969617495497
 21
394.62881131241716
 31
0.0
100
AcDbText
  0
TEXT
  5
88
330
17
100
AcDbEntity
  8
LOT_LABELS
100
AcDbText
 10
296.249374277646
 20
394.62881131241716
 30
0.0
 40
14.0
  1
LOT_35
 11
296.249374277646
 21
394.62881131241716
 31
0.0
100
AcDbText
  0
TEXT
  5
89
330
17
100
AcDbEntity
  8
LOT_LABELS
100
AcDbText
 10
358.809052380337
 20
394.62881131241716
 30
0.0
 40
14.0
  1
LOT_36
 11
358.809052380337
 21
394.62881131241716
 31
0.0
100
AcDbText
  0
TEXT
  5
8A
330
17
100
AcDbEntity
  8
LOT_LABELS
100
AcDbText
 10
421.36873048302795
 20
394.62881131241716
 30
0.0
 40
14.0
  1
LOT_37
 11
421.36873048302795
 21
394.62881131241716
 31
0.0
100
AcDbText
  0
TEXT
  5
8B
330
17
100
AcDbEntity
  8
LOT_LABELS
100
AcDbText
 10
483.9284085857189
 20
394.62881131241716
 30
0.0
 40
14.0
  1
LOT_38
 11
483.9284085857189
 21
394.62881131241716
 31
0.0
100
AcDbText
  0
TEXT
  5
8C
330
17
100
AcDbEntity
  8
LOT_LABELS
100
AcDbText
 10
546.4880866884099
 20
394.62881131241716
 30
0.0
 40
14.0
  1
LOT_39
 11
546.4880866884099
 21
394.62881131241716
 31
0.0
100
AcDbText
  0
TEXT
  5
8D
330
17
100
AcDbEntity
  8
LOT_LABELS
100
AcDbText
 10
609.0477647911009
 20
394.62881131241716
 30
0.0
 40
14.0
  1
LOT_40
 11
609.0477647911009
 21
394.62881131241716
 31
0.0
100
AcDbText
  0
TEXT
  5
8E
330
17
100
AcDbEntity
  8
LOT_LABELS
100
AcDbText
 10
671.6074428937919
 20
394.62881131241716
 30
0.0
 40
14.0
  1
LOT_41
 11
671.6074428937919
 21
394.62881131241716
 31
0.0
100
AcDbText
  0
TEXT
  5
8F
330
17
100
AcDbEntity
  8
LOT_LABELS
100
AcDbText
 10
734.1671209964828
 20
394.62881131241716
 30
0.0
 40
14.0
  1
LOT_42
 11
734.1671209964828
 21
394.62881131241716
 31
0.0
100
AcDbText
  0
ENDSEC
  0
SECTION
  2
OBJECTS
  0
DICTIONARY
  5
A
330
0
100
AcDbDictionary
281
1
  3
ACAD_COLOR
350
B
  3
ACAD_GROUP
350
C
  3
ACAD_LAYOUT
350
D
  3
ACAD_MATERIAL
350
E
  3
ACAD_MLEADERSTYLE
350
F
  3
ACAD_MLINESTYLE
350
10
  3
ACAD_PLOTSETTINGS
350
11
  3
ACAD_PLOTSTYLENAME
350
12
  3
ACAD_SCALELIST
350
14
  3
ACAD_TABLESTYLE
350
15
  3
ACAD_VISUALSTYLE
350
16
  3
EZDXF_META
350
2D
  0
DICTIONARY
  5
B
330
A
100
AcDbDictionary
281
1
  0
DICTIONARY
  5
C
330
A
100
AcDbDictionary
281
1
  0
DICTIONARY
  5
D
330
A
100
AcDbDictionary
281
1
  3
Model
350
1A
  3
Layout1
350
1E
  0
DICTIONARY
  5
E
330
A
100
AcDbDictionary
281
1
  3
ByBlock
350
1F
  3
ByLayer
350
20
  3
Global
350
21
  0
DICTIONARY
  5
F
330
A
100
AcDbDictionary
281
1
  3
Standard
350
2C
  0
DICTIONARY
  5
10
330
A
100
AcDbDictionary
281
1
  3
Standard
350
22
  0
DICTIONARY
  5
11
330
A
100
AcDbDictionary
281
1
  0
ACDBDICTIONARYWDFLT
  5
12
330
A
100
AcDbDictionary
281
1
  3
Normal
350
13
100
AcDbDictionaryWithDefault
340
13
  0
ACDBPLACEHOLDER
  5
13
330
12
  0
DICTIONARY
  5
14
330
A
100
AcDbDictionary
281
1
  0
DICTIONARY
  5
15
330
A
100
AcDbDictionary
281
1
  0
DICTIONARY
  5
16
330
A
100
AcDbDictionary
281
1
  0
LAYOUT
  5
1A
330
D
100
AcDbPlotSettings
  1

  4
A3
  6

 40
7.5
 41
20.0
 42
7.5
 43
20.0
 44
420.0
 45
297.0
 46
0.0
 47
0.0
 48
0.0
 49
0.0
140
0.0
141
0.0
142
1.0
143
1.0
 70
1024
 72
1
 73
0
 74
5
  7

 75
16
 76
0
 77
2
 78
300
147
1.0
148
0.0
149
0.0
100
AcDbLayout
  1
Model
 70
1
 71
0
 10
0.0
 20
0.0
 11
420.0
 21
297.0
 12
0.0
 22
0.0
 32
0.0
 14
1e+20
 24
1e+20
 34
1e+20
 15
-1e+20
 25
-1e+20
 35
-1e+20
146
0.0
 13
0.0
 23
0.0
 33
0.0
 16
1.0
 26
0.0
 36
0.0
 17
0.0
 27
1.0
 37
0.0
 76
1
330
17
  0
LAYOUT
  5
1E
330
D
100
AcDbPlotSettings
  1

  4
A3
  6

 40
7.5
 41
20.0
 42
7.5
 43
20.0
 44
420.0
 45
297.0
 46
0.0
 47
0.0
 48
0.0
 49
0.0
140
0.0
141
0.0
142
1.0
143
1.0
 70
0
 72
1
 73
0
 74
5
  7

 75
16
 76
0
 77
2
 78
300
147
1.0
148
0.0
149
0.0
100
AcDbLayout
  1
Layout1
 70
1
 71
1
 10
0.0
 20
0.0
 11
420.0
 21
297.0
 12
0.0
 22
0.0
 32
0.0
 14
1e+20
 24
1e+20
 34
1e+20
 15
-1e+20
 25
-1e+20
 35
-1e+20
146
0.0
 13
0.0
 23
0.0
 33
0.0
 16
1.0
 26
0.0
 36
0.0
 17
0.0
 27
1.0
 37
0.0
 76
1
330
1B
  0
MATERIAL
  5
1F
102
{ACAD_REACTORS
330
E
102
}
330
E
100
AcDbMaterial
  1
ByBlock
  2

 70
0
 40
1.0
 71
1
 41
1.0
 91
-1023410177
 42
1.0
 72
1
  3

 73
1
 74
1
 75
1
 44
0.5
 73
0
 45
1.0
 46
1.0
 77
1
  4

 78
1
 79
1
170
1
 48
1.0
171
1
  6

172
1
173
1
174
1
140
1.0
141
1.0
175
1
  7

176
1
177
1
178
1
143
1.0
179
1
  8

270
1
271
1
272
1
145
1.0
146
1.0
273
1
  9

274
1
275
1
276
1
 42
1.0
 72
1
  3

 73
1
 74
1
 75
1
 94
63
  0
MATERIAL
  5
20
102
{ACAD_REACTORS
330
E
102
}
330
E
100
AcDbMaterial
  1
ByLayer
  2

 70
0
 40
1.0
 71
1
 41
1.0
 91
-1023410177
 42
1.0
 72
1
  3

 73
1
 74
1
 75
1
 44
0.5
 73
0
 45
1.0
 46
1.0
 77
1
  4

 78
1
 79
1
170
1
 48
1.0
171
1
  6

172
1
173
1
174
1
140
1.0
141
1.0
175
1
  7

176
1
177
1
178
1
143
1.0
179
1
  8

270
1
271
1
272
1
145
1.0
146
1.0
273
1
  9

274
1
275
1
276
1
 42
1.0
 72
1
  3

 73
1
 74
1
 75
1
 94
63
  0
MATERIAL
  5
21
102
{ACAD_REACTORS
330
E
102
}
330
E
100
AcDbMaterial
  1
Global
  2

 70
0
 40
1.0
 71
1
 41
1.0
 91
-1023410177
 42
1.0
 72
1
  3

 73
1
 74
1
 75
1
 44
0.5
 73
0
 45
1.0
 46
1.0
 77
1
  4

 78
1
 79
1
170
1
 48
1.0
171
1
  6

172
1
173
1
174
1
140
1.0
141
1.0
175
1
  7

176
1
177
1
178
1
143
1.0
179
1
  8

270
1
271
1
272
1
145
1.0
146
1.0
273
1
  9

274
1
275
1
276
1
 42
1.0
 72
1
  3

 73
1
 74
1
 75
1
 94
63
  0
MLINESTYLE
  5
22
102
{ACAD_REACTORS
330
10
102
}
330
10
100
AcDbMlineStyle
  2
Standard
 70
0
  3

 62
256
 51
90.0
 52
90.0
 71
2
 49
0.5
 62
256
  6
BYLAYER
 49
-0.5
 62
256
  6
BYLAYER
  0
MLEADERSTYLE
  5
2C
102
{ACAD_REACTORS
330
F
102
}
330
F
100
AcDbMLeaderStyle
179
2
170
2
171
1
172
0
 90
2
 40
0.0
 41
0.0
173
1
 91
-1056964608
 92
-2
290
1
 42
2.0
291
1
 43
8.0
  3
Standard
 44
4.0
300

342
29
174
1
175
1
176
0
178
1
 93
-1056964608
 45
4.0
292
0
297
0
 46
4.0
 94
-1056964608
 47
1.0
 49
1.0
140
1.0
294
1
141
0.0
177
0
142
1.0
295
0
296
0
143
3.75
271
0
272
9
273
9
  0
DICTIONARY
  5
2D
330
A
100
AcDbDictionary
280
1
281
1
  3
CREATED_BY_EZDXF
350
2E
  3
WRITTEN_BY_EZDXF
350
92
  0
DICTIONARYVAR
  5
2E
330
2D
100
DictionaryVariables
280
0
  1
1.4.2 @ 2026-03-06T22:23:23.775213+00:00
  0
DICTIONARYVAR
  5
92
330
2D
100
DictionaryVariables
280
0
  1
1.4.2 @ 2026-03-06T22:23:23.777614+00:00
  0
ENDSEC
  0
EOF
