0
SECTION
2
HEADER
9
$ACADVER
1
AC1015
0
ENDSEC
0
SECTION
2
TABLES
0
TABLE
2
LAYER
70
4
0
LAYER
2
PARCEL
70
0
62
7
6
CONTINUOUS
0
LAYER
2
ROAD
70
0
62
1
6
CONTINUOUS
0
LAYER
2
LOT_LINES
70
0
62
3
6
CONTINUOUS
0
LAYER
2
EASEMENTS
70
0
62
5
6
CONTINUOUS
0
ENDTAB
0
ENDSEC
0
SECTION
2
ENTITIES
0
LWPOLYLINE
100
AcDbEntity
8
PARCEL
100
AcDbPolyline
90
4
70
1
10
-442.74146
20
-295.160973
10
442.74146
20
-295.160973
10
442.74146
20
295.160973
10
-442.74146
20
295.160973
0
LWPOLYLINE
100
AcDbEntity
8
ROAD
100
AcDbPolyline
90
4
70
1
10
-442.74146
20
-25
10
442.74146
20
-25
10
442.74146
20
25
10
-442.74146
20
25
0
LWPOLYLINE
100
AcDbEntity
8
LOT_LINES
100
AcDbPolyline
90
4
70
1
10
-442.74146
20
-295.160973
10
-332.056095
20
-295.160973
10
-332.056095
20
-167.580487
10
-442.74146
20
-167.580487
0
LWPOLYLINE
100
AcDbEntity
8
LOT_LINES
100
AcDbPolyline
90
4
70
1
10
-332.056095
20
-295.160973
10
-221.37073
20
-295.160973
10
-221.37073
20
-167.580487
10
-332.056095
20
-167.580487
0
LWPOLYLINE
100
AcDbEntity
8
LOT_LINES
100
AcDbPolyline
90
4
70
1
10
-221.37073
20
-295.160973
10
-110.685365
20
-295.160973
10
-110.685365
20
-167.580487
10
-221.37073
20
-167.580487
0
LWPOLYLINE
100
AcDbEntity
8
LOT_LINES
100
AcDbPolyline
90
4
70
1
10
-110.685365
20
-295.160973
10
0
20
-295.160973
10
0
20
-167.580487
10
-110.685365
20
-167.580487
0
LWPOLYLINE
100
AcDbEntity
8
LOT_LINES
100
AcDbPolyline
90
4
70
1
10
0
20
-295.160973
10
110.685365
20
-295.160973
10
110.685365
20
-167.580487
10
0
20
-167.580487
0
LWPOLYLINE
100
AcDbEntity
8
LOT_LINES
100
AcDbPolyline
90
4
70
1
10
110.685365
20
-295.160973
10
221.37073
20
-295.160973
10
221.37073
20
-167.580487
10
110.685365
20
-167.580487
0
LWPOLYLINE
100
AcDbEntity
8
LOT_LINES
100
AcDbPolyline
90
4
70
1
10
221.37073
20
-295.160973
10
332.056095
20
-295.160973
10
332.056095
20
-167.580487
10
221.37073
20
-167.580487
0
LWPOLYLINE
100
AcDbEntity
8
LOT_LINES
100
AcDbPolyline
90
4
70
1
10
332.056095
20
-295.160973
10
442.74146
20
-295.160973
10
442.74146
20
-167.580487
10
332.056095
20
-167.580487
0
LWPOLYLINE
100
AcDbEntity
8
LOT_LINES
100
AcDbPolyline
90
4
70
1
10
-442.74146
20
-167.580487
10
-316.2439
20
-167.580487
10
-316.2439
20
-40
10
-442.74146
20
-40
0
LWPOLYLINE
100
AcDbEntity
8
LOT_LINES
100
AcDbPolyline
90
4
70
1
10
-316.2439
20
-167.580487
10
-189.74634
20
-167.580487
10
-189.74634
20
-40
10
-316.2439
20
-40
0
LWPOLYLINE
100
AcDbEntity
8
LOT_LINES
100
AcDbPolyline
90
4
70
1
10
-189.74634
20
-167.580487
10
-63.24878
20
-167.580487
10
-63.24878
20
-40
10
-189.74634
20
-40
0
LWPOLYLINE
100
AcDbEntity
8
LOT_LINES
100
AcDbPolyline
90
4
70
1
10
-63.24878
20
-167.580487
10
63.24878
20
-167.580487
10
63.24878
20
-40
10
-63.24878
20
-40
0
LWPOLYLINE
100
AcDbEntity
8
LOT_LINES
100
AcDbPolyline
90
4
70
1
10
63.24878
20
-167.580487
10
189.74634
20
-167.580487
10
189.74634
20
-40
10
63.24878
20
-40
0
LWPOLYLINE
100
AcDbEntity
8
LOT_LINES
100
AcDbPolyline
90
4
70
1
10
189.74634
20
-167.580487
10
316.2439
20
-167.580487
10
316.2439
20
-40
10
189.74634
20
-40
0
LWPOLYLINE
100
AcDbEntity
8
LOT_LINES
100
AcDbPolyline
90
4
70
1
10
316.2439
20
-167.580487
10
442.74146
20
-167.580487
10
442.74146
20
-40
10
316.2439
20
-40
0
LWPOLYLINE
100
AcDbEntity
8
LOT_LINES
100
AcDbPolyline
90
4
70
1
10
-442.74146
20
40
10
-332.056095
20
40
10
-332.056095
20
167.580487
10
-442.74146
20
167.580487
0
LWPOLYLINE
100
AcDbEntity
8
LOT_LINES
100
AcDbPolyline
90
4
70
1
10
-332.056095
20
40
10
-221.37073
20
40
10
-221.37073
20
167.580487
10
-332.056095
20
167.580487
0
LWPOLYLINE
100
AcDbEntity
8
LOT_LINES
100
AcDbPolyline
90
4
70
1
10
-221.37073
20
40
10
-110.685365
20
40
10
-110.685365
20
167.580487
10
-221.37073
20
167.580487
0
LWPOLYLINE
100
AcDbEntity
8
LOT_LINES
100
AcDbPolyline
90
4
70
1
10
-110.685365
20
40
10
0
20
40
10
0
20
167.580487
10
-110.685365
20
167.580487
0
LWPOLYLINE
100
AcDbEntity
8
LOT_LINES
100
AcDbPolyline
90
4
70
1
10
0
20
40
10
110.685365
20
40
10
110.685365
20
167.580487
10
0
20
167.580487
0
LWPOLYLINE
100
AcDbEntity
8
LOT_LINES
100
AcDbPolyline
90
4
70
1
10
110.685365
20
40
10
221.37073
20
40
10
221.37073
20
167.580487
10
110.685365
20
167.580487
0
LWPOLYLINE
100
AcDbEntity
8
LOT_LINES
100
AcDbPolyline
90
4
70
1
10
221.37073
20
40
10
332.056095
20
40
10
332.056095
20
167.580487
10
221.37073
20
167.580487
0
LWPOLYLINE
100
AcDbEntity
8
LOT_LINES
100
AcDbPolyline
90
4
70
1
10
332.056095
20
40
10
442.74146
20
40
10
442.74146
20
167.580487
10
332.056095
20
167.580487
0
LWPOLYLINE
100
AcDbEntity
8
LOT_LINES
100
AcDbPolyline
90
4
70
1
10
-442.74146
20
167.580487
10
-316.2439
20
167.580487
10
-316.2439
20
295.160973
10
-442.74146
20
295.160973
0
LWPOLYLINE
100
AcDbEntity
8
LOT_LINES
100
AcDbPolyline
90
4
70
1
10
-316.2439
20
167.580487
10
-189.74634
20
167.580487
10
-189.74634
20
295.160973
10
-316.2439
20
295.160973
0
LWPOLYLINE
100
AcDbEntity
8
LOT_LINES
100
AcDbPolyline
90
4
70
1
10
-189.74634
20
167.580487
10
-63.24878
20
167.580487
10
-63.24878
20
295.160973
10
-189.74634
20
295.160973
0
LWPOLYLINE
100
AcDbEntity
8
LOT_LINES
100
AcDbPolyline
90
4
70
1
10
-63.24878
20
167.580487
10
63.24878
20
167.580487
10
63.24878
20
295.160973
10
-63.24878
20
295.160973
0
LWPOLYLINE
100
AcDbEntity
8
LOT_LINES
100
AcDbPolyline
90
4
70
1
10
63.24878
20
167.580487
10
189.74634
20
167.580487
10
189.74634
20
295.160973
10
63.24878
20
295.160973
0
LWPOLYLINE
100
AcDbEntity
8
LOT_LINES
100
AcDbPolyline
90
4
70
1
10
189.74634
20
167.580487
10
316.2439
20
167.580487
10
316.2439
20
295.160973
10
189.74634
20
295.160973
0
LWPOLYLINE
100
AcDbEntity
8
LOT_LINES
100
AcDbPolyline
90
4
70
1
10
316.2439
20
167.580487
10
442.74146
20
167.580487
10
442.74146
20
295.160973
10
316.2439
20
295.160973
0
LWPOLYLINE
100
AcDbEntity
8
EASEMENTS
100
AcDbPolyline
90
4
70
1
10
-442.74146
20
-40
10
442.74146
20
-40
10
442.74146
20
-25
10
-442.74146
20
-25
0
LWPOLYLINE
100
AcDbEntity
8
EASEMENTS
100
AcDbPolyline
90
4
70
1
10
-442.74146
20
25
10
442.74146
20
25
10
442.74146
20
40
10
-442.74146
20
40
0
ENDSEC
0
EOF
